<svg width="30" height="30" viewBox="0 0 30 30" fill="none" xmlns="http://www.w3.org/2000/svg">
<rect width="30" height="30" rx="15" fill="#52FF00"/>
<path d="M14.06 22.28C13.0733 22.28 12.1867 22.0933 11.4 21.72C10.6267 21.3467 10.0133 20.8067 9.56 20.1C9.12 19.3933 8.9 18.54 8.9 17.54V17.16H10.52V17.52C10.52 18.5467 10.8467 19.3533 11.5 19.94C12.1533 20.5267 13.0067 20.82 14.06 20.82C15.1267 20.82 15.9533 20.5467 16.54 20C17.14 19.44 17.44 18.74 17.44 17.9V17.74C17.44 17.1267 17.2933 16.6333 17 16.26C16.7067 15.8733 16.3067 15.5933 15.8 15.42C15.3067 15.2333 14.76 15.14 14.16 15.14H11.88V13.12L17.22 9.7V9.46H9.24V8H18.94V10.26L13.72 13.62V13.86H14.72C15.5067 13.86 16.2267 14.0067 16.88 14.3C17.5467 14.58 18.0733 15.0067 18.46 15.58C18.86 16.14 19.06 16.8467 19.06 17.7V17.92C19.06 18.8 18.8533 19.5667 18.44 20.22C18.0267 20.8733 17.4467 21.38 16.7 21.74C15.9533 22.1 15.0733 22.28 14.06 22.28Z" fill="black"/>
</svg>
