<svg width="30" height="30" viewBox="0 0 30 30" fill="none" xmlns="http://www.w3.org/2000/svg">
<rect width="30" height="30" rx="15" fill="#52FF00"/>
<path d="M9.06 22V20.54C9.06 19.54 9.23333 18.74 9.58 18.14C9.94 17.54 10.4333 17.06 11.06 16.7C11.7 16.3267 12.46 16.0067 13.34 15.74L14.44 15.4C15.04 15.2133 15.5667 14.9867 16.02 14.72C16.4733 14.44 16.8267 14.0933 17.08 13.68C17.3333 13.2533 17.46 12.7333 17.46 12.12V12.04C17.46 11.16 17.1533 10.4667 16.54 9.96C15.9267 9.44 15.14 9.18 14.18 9.18C13.1667 9.18 12.34 9.45333 11.7 10C11.06 10.5333 10.74 11.3467 10.74 12.44V12.72H9.14V12.46C9.14 11.4467 9.36 10.5867 9.8 9.88C10.24 9.17333 10.84 8.64 11.6 8.28C12.36 7.90667 13.22 7.72 14.18 7.72C15.14 7.72 15.9867 7.9 16.72 8.26C17.4667 8.62 18.0467 9.12 18.46 9.76C18.8733 10.4 19.08 11.1467 19.08 12V12.18C19.08 13.0867 18.9 13.84 18.54 14.44C18.18 15.0267 17.68 15.5067 17.04 15.88C16.4133 16.2533 15.6733 16.5733 14.82 16.84L13.74 17.18C13.06 17.3933 12.4933 17.62 12.04 17.86C11.6 18.0867 11.2667 18.38 11.04 18.74C10.8133 19.1 10.7 19.5867 10.7 20.2V20.54H18.96V22H9.06Z" fill="black"/>
</svg>
