<svg width="24" height="24" viewBox="0 0 24 24" fill="none" xmlns="http://www.w3.org/2000/svg">
<mask id="mask0_2_115" style="mask-type:alpha" maskUnits="userSpaceOnUse" x="0" y="0" width="24" height="24">
<rect width="24" height="24" fill="#D9D9D9"/>
</mask>
<g mask="url(#mask0_2_115)">
<path d="M8.6 22.5L6.7 19.3L3.1 18.5L3.45 14.8L1 12L3.45 9.2L3.1 5.5L6.7 4.7L8.6 1.5L12 2.95L15.4 1.5L17.3 4.7L20.9 5.5L20.55 9.2L23 12L20.55 14.8L20.9 18.5L17.3 19.3L15.4 22.5L12 21.05L8.6 22.5ZM10.95 15.55L16.6 9.9L15.2 8.45L10.95 12.7L8.8 10.6L7.4 12L10.95 15.55Z" fill="#52FF00"/>
<path d="M10.95 15.55L16.6 9.9L15.2 8.45L10.95 12.7L8.8 10.6L7.4 12L10.95 15.55Z" fill="black"/>
<path d="M6.82898 19.2234L6.79586 19.1676L6.73254 19.1536L3.2618 18.3823L3.59933 14.8141L3.60542 14.7498L3.56289 14.7012L1.19932 12L3.56289 9.29878L3.60542 9.25017L3.59933 9.18587L3.2618 5.6177L6.73254 4.84643L6.79586 4.83236L6.82898 4.77658L8.66194 1.68949L11.9412 3.08798L12 3.11307L12.0588 3.08798L15.3381 1.68949L17.171 4.77658L17.2041 4.83236L17.2675 4.84643L20.7382 5.6177L20.4007 9.18587L20.3946 9.25017L20.4371 9.29878L22.8007 12L20.4371 14.7012L20.3946 14.7498L20.4007 14.8141L20.7382 18.3823L17.2675 19.1536L17.2041 19.1676L17.171 19.2234L15.3381 22.3105L12.0588 20.912L12 20.8869L11.9412 20.912L8.66194 22.3105L6.82898 19.2234ZM10.8439 15.6561L10.95 15.7621L11.0561 15.6561L16.7061 10.0061L16.8103 9.90184L16.7079 9.79581L15.3079 8.34581L15.2019 8.23599L15.0939 8.34393L10.9488 12.4891L8.90481 10.4927L8.79876 10.3891L8.69393 10.4939L7.29393 11.8939L7.18787 12L7.29393 12.1061L10.8439 15.6561ZM10.8452 12.8073L10.9512 12.9109L11.0561 12.8061L15.1981 8.66401L16.3897 9.89816L10.95 15.3379L7.61213 12L8.80124 10.8109L10.8452 12.8073Z" stroke="black" stroke-width="0.3"/>
</g>
</svg>
